<?xml version="1.0" standalone="no"?>
<!DOCTYPE svg PUBLIC "-//W3C//DTD SVG 20010904//EN"
 "http://www.w3.org/TR/2001/REC-SVG-20010904/DTD/svg10.dtd">
<svg version="1.0" xmlns="http://www.w3.org/2000/svg"
 width="200.000000pt" height="200.000000pt" viewBox="0 0 200.000000 200.000000"
 preserveAspectRatio="xMidYMid meet">

<g transform="translate(0.000000,200.000000) scale(0.100000,-0.100000)"
fill="#000000" stroke="none">
<path d="M303 1975 c-16 -19 -18 -25 -7 -25 9 0 12 -5 9 -10 -4 -6 -15 -8 -26
-5 -27 9 -24 -11 6 -39 29 -27 31 -36 9 -36 -8 0 -12 4 -9 10 3 5 -5 15 -19
21 -14 7 -23 16 -19 22 3 6 1 7 -5 3 -7 -4 -12 -17 -12 -29 0 -18 2 -19 10 -7
7 11 10 12 10 2 0 -8 -9 -16 -21 -19 -11 -3 -18 -11 -15 -19 3 -7 -4 -16 -15
-19 -17 -6 -18 -9 -7 -22 11 -14 10 -15 -15 -9 -24 6 -28 4 -23 -11 3 -10 2
-23 -2 -30 -11 -17 -41 8 -39 33 2 14 -5 19 -24 20 -15 1 -34 4 -43 7 -9 4
-16 1 -16 -5 0 -7 -5 -6 -15 2 -13 10 -14 -5 -14 -123 l1 -134 36 3 c37 3 29
-4 -20 -20 -12 -4 -18 -16 -18 -36 0 -23 6 -33 25 -40 33 -13 32 -24 -1 -16
-26 7 -26 6 -20 -31 3 -21 6 -42 5 -48 0 -5 -2 -74 -5 -152 -4 -141 -4 -142
18 -146 l23 -4 -23 -2 c-22 -1 -22 -2 -21 -151 1 -115 4 -150 14 -150 12 0 25
-21 25 -41 0 -5 -10 -9 -22 -10 -13 0 -17 -3 -10 -6 6 -2 12 -9 12 -14 0 -6
-5 -7 -12 -3 -7 4 -8 3 -4 -4 4 -6 13 -9 20 -6 8 3 16 -4 19 -15 3 -12 1 -21
-4 -21 -17 0 -9 -29 10 -35 22 -7 46 2 82 27 14 11 42 20 61 21 20 1 34 5 32
8 -7 12 75 39 114 39 20 0 46 -8 57 -16 19 -15 19 -15 -10 -8 -27 7 -29 6 -16
-9 16 -20 9 -21 -27 -4 -27 13 -67 15 -79 3 -3 -3 4 -6 16 -6 13 0 20 -4 16
-11 -4 -6 0 -9 10 -7 10 2 20 -3 22 -9 4 -10 -3 -10 -27 -2 -27 10 -33 9 -45
-9 -11 -14 -25 -19 -57 -19 -24 0 -46 5 -50 11 -6 8 -11 6 -18 -4 -14 -22 -13
-25 15 -40 14 -7 23 -15 20 -18 -2 -2 -20 5 -40 17 -46 27 -56 27 -91 -5 l-29
-26 28 6 c16 4 39 0 57 -9 27 -14 29 -17 15 -31 -9 -10 -23 -13 -37 -9 -18 5
-20 4 -8 -4 8 -6 35 -11 60 -12 46 -2 43 -3 -68 -15 -46 -5 -52 -8 -52 -29 0
-13 6 -26 13 -28 10 -4 10 -6 0 -6 -25 -2 -13 -31 15 -37 47 -10 48 -12 10
-13 -50 -1 -54 -33 -5 -49 l32 -10 -32 -1 c-31 -1 -33 -3 -33 -36 0 -26 4 -35
18 -36 14 0 14 -2 -3 -9 -13 -6 -15 -9 -5 -9 13 -1 13 -2 0 -12 -11 -8 -5 -9
25 -5 25 3 44 1 55 -8 8 -7 31 -19 50 -25 50 -16 128 -76 152 -117 l20 -34
218 0 c171 0 225 3 253 15 20 8 44 15 54 15 16 0 16 -1 -1 -13 -16 -12 -14
-13 19 -13 32 0 35 2 19 13 -29 21 -9 25 37 7 24 -9 66 -18 94 -18 40 -1 51 3
60 19 6 11 20 35 32 54 20 31 21 37 7 62 -11 22 -12 33 -2 54 6 14 15 25 20
25 5 0 8 6 6 12 -6 32 12 55 42 53 26 -2 30 2 30 23 0 23 1 24 23 9 15 -10 29
-12 38 -6 23 15 39 10 50 -14 6 -13 20 -27 32 -32 25 -11 34 -49 18 -69 -8
-10 -8 -16 2 -25 11 -9 20 -3 41 29 24 36 58 60 86 60 5 0 21 -17 35 -37 l25
-38 0 45 c1 51 24 96 33 63 23 -88 30 -120 40 -198 l12 -90 183 -3 182 -2 0
39 c0 22 -5 42 -12 44 -10 4 -10 6 0 6 18 1 18 1527 0 1534 -10 4 -10 6 0 6 6
1 12 14 12 30 0 32 -23 47 -54 35 -9 -3 -16 -1 -16 5 0 11 19 15 53 12 15 -2
17 10 17 131 0 123 -2 134 -20 146 -28 17 -677 17 -699 -1 -8 -7 -12 -7 -8 -1
4 7 -93 11 -334 13 -230 1 -338 -2 -334 -9 3 -5 1 -10 -4 -10 -6 0 -11 5 -11
10 0 6 -31 10 -72 10 -52 0 -69 -3 -58 -10 8 -6 29 -7 45 -4 27 5 26 3 -14
-20 -52 -31 -54 -31 -46 -6 4 12 2 20 -5 20 -6 0 -8 5 -5 10 4 6 -16 10 -52
10 -49 0 -61 -4 -80 -25z m47 -5 c0 -19 -20 -27 -33 -13 -8 7 11 33 24 33 5 0
9 -9 9 -20z m548 2 c18 -3 20 -7 10 -13 -19 -13 -40 -11 -32 3 5 7 1 9 -13 6
-13 -3 -20 0 -20 9 0 9 6 11 16 7 9 -4 27 -9 39 -12z m102 -2 c0 -5 -2 -10 -4
-10 -3 0 -8 5 -11 10 -3 6 -1 10 4 10 6 0 11 -4 11 -10z m-580 -15 c0 -9 -9
-15 -22 -14 -17 1 -19 2 -5 6 9 2 17 9 17 14 0 5 2 9 5 9 3 0 5 -7 5 -15z
m190 11 c0 -9 -40 -13 -46 -5 -3 5 6 9 20 9 14 0 26 -2 26 -4z m480 -4 c0 -5
-7 -9 -15 -9 -8 0 -15 4 -15 9 0 4 7 8 15 8 8 0 15 -4 15 -8z m-248 -19 c-20
-4 -21 -7 -10 -21 10 -12 8 -12 -14 2 -16 10 -28 19 -28 20 0 0 17 2 38 2 20
1 27 -1 14 -3z m383 -16 c0 -6 12 -14 26 -17 45 -13 118 -68 119 -92 0 -8 43
-75 61 -96 20 -24 1 -25 -31 -2 -29 21 -32 21 -49 6 -17 -16 -21 -14 -62 29
-57 60 -86 75 -149 75 -32 0 -49 4 -45 10 3 6 0 10 -7 10 -7 0 -22 -17 -33
-37 -13 -24 -37 -47 -66 -63 -53 -29 -79 -52 -79 -72 0 -21 -29 -58 -30 -38
-1 36 -20 -17 -21 -60 l-1 -45 -8 54 c-5 30 -4 65 1 78 6 16 5 22 -4 20 -6 -1
-13 8 -15 21 -4 25 -20 29 -28 7 -4 -8 -11 -12 -17 -8 -6 4 -8 1 -5 -8 4 -10
-3 -14 -23 -15 -16 -1 -29 0 -29 1 0 13 58 100 82 124 29 28 29 29 7 24 -13
-3 -20 -2 -16 2 4 5 21 10 37 11 16 1 42 11 57 22 41 28 130 49 145 34 16 -16
28 -15 28 3 0 8 5 15 10 15 6 0 10 -5 10 -12 0 -6 9 -3 20 7 24 22 81 29 92
12 5 -8 8 -5 8 7 0 11 3 16 8 12 4 -4 7 -13 7 -19z m635 13 c0 -5 -2 -10 -4
-10 -3 0 -8 5 -11 10 -3 6 -1 10 4 10 6 0 11 -4 11 -10z m-1524 -14 c19 -19
18 -26 -4 -26 -11 0 -18 8 -19 20 -2 24 3 25 23 6z m54 -6 c0 -5 -4 -10 -9
-10 -6 0 -13 5 -16 10 -3 6 1 10 9 10 9 0 16 -4 16 -10z m283 3 c-7 -2 -19 -2
-25 0 -7 3 -2 5 12 5 14 0 19 -2 13 -5z m-143 -15 c0 -4 -7 -8 -15 -8 -8 0
-15 4 -15 8 0 5 7 9 15 9 8 0 15 -4 15 -9z m103 -35 c-7 -2 -19 -2 -25 0 -7 3
-2 5 12 5 14 0 19 -2 13 -5z m-285 -21 c2 -7 -3 -12 -12 -12 -9 0 -16 7 -16
16 0 17 22 14 28 -4z m62 -7 c0 -12 -29 -3 -34 10 -4 13 -2 14 14 5 11 -6 20
-13 20 -15z m1270 5 c0 -5 -5 -10 -11 -10 -5 0 -7 5 -4 10 3 6 8 10 11 10 2 0
4 -4 4 -10z m-1375 -18 c-3 -3 -11 0 -18 7 -9 10 -8 11 6 5 10 -3 15 -9 12
-12z m395 2 c0 -2 -7 -4 -15 -4 -8 0 -15 4 -15 10 0 5 7 7 15 4 8 -4 15 -8 15
-10z m1267 10 c-3 -3 -12 -4 -19 -1 -8 3 -5 6 6 6 11 1 17 -2 13 -5z m-340
-10 c-3 -3 -12 -4 -19 -1 -8 3 -5 6 6 6 11 1 17 -2 13 -5z m-1127 -14 c21 -13
10 -18 -27 -13 -18 3 -30 9 -27 14 7 12 35 11 54 -1z m1075 0 c3 -5 1 -10 -4
-10 -6 0 -11 5 -11 10 0 6 2 10 4 10 3 0 8 -4 11 -10z m-1285 -15 c6 -8 10
-20 7 -27 -4 -8 -6 -7 -6 4 -1 9 -9 22 -18 27 -10 6 -13 11 -7 11 6 0 17 -7
24 -15z m470 6 c0 -14 -29 -21 -36 -9 -4 7 -3 8 4 4 7 -4 12 -2 12 3 0 6 5 11
10 11 6 0 10 -4 10 -9z m449 0 c25 -16 -8 -22 -36 -7 l-28 15 25 0 c14 1 31
-3 39 -8z m-959 -11 c0 -5 -2 -10 -4 -10 -3 0 -8 5 -11 10 -3 6 -1 10 4 10 6
0 11 -4 11 -10z m1680 0 c0 -5 -2 -10 -4 -10 -3 0 -8 5 -11 10 -3 6 -1 10 4
10 6 0 11 -4 11 -10z m-1870 -10 c0 -5 -4 -10 -10 -10 -5 0 -10 5 -10 10 0 6
5 10 10 10 6 0 10 -4 10 -10z m36 -25 c0 -14 -6 -25 -13 -25 -16 0 -17 22 -1
38 7 7 12 12 13 12 1 0 1 -11 1 -25z m271 9 c-3 -3 -12 -4 -19 -1 -8 3 -5 6 6
6 11 1 17 -2 13 -5z m1623 -24 c0 -5 -2 -10 -4 -10 -3 0 -8 5 -11 10 -3 6 -1
10 4 10 6 0 11 -4 11 -10z m-429 -23 c-10 -9 -11 -8 -5 6 3 10 9 15 12 12 3
-3 0 -11 -7 -18z m-1435 -22 c-6 -24 -8 -24 -23 -10 -14 15 -14 17 3 30 24 17
28 13 20 -20z m50 7 c-22 -5 -30 3 -21 18 5 8 11 7 22 -2 15 -12 14 -13 -1
-16z m84 18 c0 -5 -4 -10 -9 -10 -6 0 -13 5 -16 10 -3 6 1 10 9 10 9 0 16 -4
16 -10z m822 -9 c13 -6 41 -13 63 -16 45 -8 96 -55 130 -120 11 -21 40 -59 64
-84 38 -39 45 -53 49 -96 3 -27 10 -53 16 -57 7 -5 3 -8 -9 -8 -33 0 -65 12
-59 21 9 16 -45 29 -122 29 -57 0 -76 -4 -80 -15 -9 -22 -42 -18 -67 9 -12 13
-48 33 -79 46 -71 27 -93 50 -85 89 3 16 2 44 -3 61 -8 29 -7 32 10 27 16 -4
18 -1 13 25 -4 21 -2 28 8 26 7 -2 18 7 23 19 10 22 59 51 88 52 9 1 27 -3 40
-8z m433 -11 c3 -5 2 -10 -4 -10 -5 0 -13 5 -16 10 -3 6 -2 10 4 10 5 0 13 -4
16 -10z m-35 -10 c0 -5 -4 -10 -10 -10 -5 0 -10 5 -10 10 0 6 5 10 10 10 6 0
10 -4 10 -10z m-795 -10 c3 -5 1 -10 -4 -10 -6 0 -11 5 -11 10 0 6 2 10 4 10
3 0 8 -4 11 -10z m-595 -14 c0 -8 6 -16 13 -19 6 -2 -3 -4 -22 -5 -19 0 -38
-7 -42 -14 -6 -9 -9 -10 -9 -1 0 13 39 53 52 53 4 0 8 -6 8 -14z m75 4 c-3 -5
-11 -10 -16 -10 -6 0 -7 5 -4 10 3 6 11 10 16 10 6 0 7 -4 4 -10z m-35 -50
c13 -8 13 -10 -2 -10 -9 0 -20 5 -23 10 -8 13 5 13 25 0z m88 -6 c14 -15 14
-16 -3 -13 -10 2 -20 10 -23 17 -5 17 6 15 26 -4z m-143 -25 c-3 -4 3 -12 12
-18 14 -8 14 -10 3 -10 -26 1 -45 13 -46 30 -1 11 5 15 17 12 10 -3 16 -9 14
-14z m445 11 c0 -5 -2 -10 -4 -10 -3 0 -8 5 -11 10 -3 6 -1 10 4 10 6 0 11 -4
11 -10z m-345 -10 c3 -6 -1 -7 -9 -4 -18 7 -21 14 -7 14 6 0 13 -4 16 -10z
m1382 -6 c-3 -3 -12 -4 -19 -1 -8 3 -5 6 6 6 11 1 17 -2 13 -5z m-960 -50 c-3
-3 -12 -4 -19 -1 -8 3 -5 6 6 6 11 1 17 -2 13 -5z m1013 -10 c0 -8 -4 -12 -10
-9 -5 3 -10 10 -10 16 0 5 5 9 10 9 6 0 10 -7 10 -16z m-1135 -4 c-3 -5 -14
-10 -23 -9 -14 0 -13 2 3 9 27 11 27 11 20 0z m-325 -14 c0 -3 -4 -8 -10 -11
-5 -3 -10 -1 -10 4 0 6 5 11 10 11 6 0 10 -2 10 -4z m1518 -31 c-9 -9 -30 14
-23 25 6 9 10 8 17 -4 6 -10 8 -19 6 -21z m-804 3 c22 -31 20 -48 -5 -48 -11
0 -17 -4 -14 -10 3 -6 -5 -10 -18 -10 -30 0 -37 15 -25 58 10 38 39 43 62 10z
m780 -17 c4 -5 -3 -7 -14 -4 -23 6 -26 13 -6 13 8 0 17 -4 20 -9z m-1319 -30
c3 -5 1 -12 -5 -16 -5 -3 -10 1 -10 9 0 18 6 21 15 7z m112 3 c-3 -3 -12 -4
-19 -1 -8 3 -5 6 6 6 11 1 17 -2 13 -5z m1163 -4 c0 -5 -7 -7 -15 -4 -8 4 -15
8 -15 10 0 2 7 4 15 4 8 0 15 -4 15 -10z m-1207 -7 c-7 -2 -19 -2 -25 0 -7 3
-2 5 12 5 14 0 19 -2 13 -5z m190 -10 c-3 -7 -9 -13 -14 -13 -5 0 -9 6 -9 13
0 8 6 14 14 14 8 0 12 -6 9 -14z m241 -23 c15 11 76 2 76 -11 0 -5 -9 -9 -21
-9 -12 0 -17 -4 -13 -11 3 -6 19 -9 35 -7 16 3 26 2 23 -1 -3 -3 14 -11 38
-17 34 -8 48 -8 66 4 13 8 22 10 22 4 0 -7 14 -9 35 -5 28 4 35 2 35 -11 0
-19 16 -22 23 -3 4 9 7 9 14 0 13 -19 133 -24 165 -7 33 17 56 9 64 -22 5 -21
9 -22 21 -12 9 7 19 21 24 33 9 19 9 19 5 0 -19 -80 -48 -159 -65 -182 -12
-14 -21 -31 -21 -38 0 -14 -69 -122 -97 -150 -19 -19 -19 -20 13 -51 17 -18
53 -75 80 -126 27 -55 56 -99 68 -104 15 -7 21 -18 21 -44 1 -20 6 -49 12 -65
20 -51 53 -184 53 -213 0 -25 -3 -27 -40 -29 -56 -2 -70 -5 -70 -15 0 -4 -7
-8 -15 -8 -18 0 -18 1 -1 35 12 23 15 24 19 8 4 -15 5 -14 6 5 0 12 -3 22 -8
22 -5 0 -7 10 -3 22 4 15 2 19 -7 13 -9 -5 -12 0 -10 16 1 13 -1 31 -4 39 -3
8 -8 29 -10 45 -11 71 -29 150 -36 155 -4 3 -19 39 -34 80 -25 67 -60 139 -43
86 14 -41 -6 -110 -40 -144 -33 -33 -33 -33 -106 -26 -93 8 -151 30 -221 83
-123 94 -168 203 -116 287 17 28 19 39 10 66 -5 18 -13 70 -17 116 -6 74 -9
82 -28 83 -19 2 -19 2 3 6 21 4 23 9 19 48 -4 34 -2 42 8 38 9 -3 14 2 14 14
0 30 12 35 28 12 10 -14 17 -17 26 -9z m-718 9 c3 -6 0 -15 -7 -20 -23 -14
-36 -10 -16 6 18 13 17 14 -10 18 l-28 4 27 2 c15 0 30 -4 34 -10z m544 1 c0
-5 -5 -10 -11 -10 -5 0 -7 5 -4 10 3 6 8 10 11 10 2 0 4 -4 4 -10z m40 -33 c0
-4 -6 -2 -14 5 -8 7 -12 17 -9 22 5 8 23 -12 23 -27z m-305 -15 c-3 -3 -11 0
-18 7 -9 10 -8 11 6 5 10 -3 15 -9 12 -12z m1324 5 c-2 -1 -13 -9 -24 -17 -19
-14 -19 -14 -6 3 7 9 18 17 24 17 6 0 8 -1 6 -3z m-1289 -21 c0 -3 -4 -8 -10
-11 -5 -3 -10 -1 -10 4 0 6 5 11 10 11 6 0 10 -2 10 -4z m895 -6 c8 -13 -5
-13 -25 0 -13 8 -13 10 2 10 9 0 20 -4 23 -10z m-735 -20 c0 -5 -4 -10 -10
-10 -5 0 -10 5 -10 10 0 6 5 10 10 10 6 0 10 -4 10 -10z m-460 -100 c8 -5 11
-10 5 -10 -5 0 -17 5 -25 10 -8 5 -10 10 -5 10 6 0 17 -5 25 -10z m-50 -104
c0 -2 -11 -1 -25 2 -14 2 -22 8 -19 13 4 8 44 -6 44 -15z m70 -46 c0 -5 -8
-10 -17 -10 -15 0 -16 2 -3 10 19 12 20 12 20 0z m-16 -69 c4 -5 -3 -7 -14 -4
-23 6 -26 13 -6 13 8 0 17 -4 20 -9z m525 -108 c10 -21 40 -92 66 -157 36 -94
44 -121 33 -127 -9 -6 -7 -9 8 -9 11 0 25 -5 32 -12 16 -16 15 -55 0 -61 -8
-4 -7 -6 4 -6 20 -1 59 -112 88 -256 22 -108 21 -125 -10 -125 -11 0 -39 -14
-62 -30 -22 -17 -47 -30 -54 -30 -8 0 -14 27 -19 88 -6 77 -24 206 -41 283 -5
21 -1 28 18 34 12 4 25 7 28 7 3 0 11 6 18 14 10 11 10 14 -1 14 -8 0 -20 -6
-26 -14 -6 -8 -20 -16 -31 -19 -19 -5 -35 22 -42 68 -2 11 -8 25 -14 30 -6 6
-17 31 -24 57 -9 33 -28 64 -62 100 -27 29 -57 63 -65 76 -9 13 -26 22 -42 22
l-26 0 30 16 c33 18 156 71 167 73 4 1 16 -16 27 -36z m741 17 c-8 -5 -19 -10
-25 -10 -5 0 -3 5 5 10 8 5 20 10 25 10 6 0 3 -5 -5 -10z m-1343 -32 c-3 -8
-6 -5 -6 6 -1 11 2 17 5 13 3 -3 4 -12 1 -19z m1393 -10 c0 -13 -17 -9 -34 8
-22 22 -20 25 9 12 14 -6 25 -15 25 -20z m-1300 -4 c0 -2 -9 -4 -20 -4 -11 0
-20 4 -20 9 0 5 9 7 20 4 11 -3 20 -7 20 -9z m-109 -31 c-8 -15 -10 -15 -11
-2 0 17 10 32 18 25 2 -3 -1 -13 -7 -23z m369 -7 c0 -2 -7 -7 -16 -10 -8 -3
-12 -2 -9 4 6 10 25 14 25 6z m70 -32 l33 -17 -38 -18 c-21 -11 -59 -19 -84
-19 -25 0 -68 -7 -95 -15 -66 -20 -78 -19 -36 4 22 11 59 19 99 20 64 2 101
13 101 31 0 6 -9 10 -20 10 -11 0 -20 5 -20 10 0 15 22 12 60 -6z m-316 -5 c3
-3 -4 -5 -14 -6 -11 -1 -20 2 -20 7 0 8 25 8 34 -1z m1616 -249 c0 -5 -7 -7
-15 -4 -8 4 -15 8 -15 10 0 2 7 4 15 4 8 0 15 -4 15 -10z m-570 -171 c0 -10
-4 -19 -10 -19 -5 0 -10 12 -10 26 0 14 4 23 10 19 6 -3 10 -15 10 -26z m43
11 c3 -11 1 -20 -4 -20 -5 0 -9 9 -9 20 0 11 2 20 4 20 2 0 6 -9 9 -20z m55
-13 c-7 -14 -13 -17 -16 -9 -6 19 6 44 18 37 7 -4 6 -14 -2 -28z m-134 -27
c-6 -5 -24 21 -24 34 0 6 6 1 14 -10 8 -10 12 -21 10 -24z m186 16 c0 -17 -14
-29 -23 -20 -8 8 3 34 14 34 5 0 9 -6 9 -14z m-226 -22 c9 -22 -3 -32 -14 -14
-12 19 -12 30 -1 30 5 0 12 -7 15 -16z m-44 -39 c7 -9 10 -18 7 -22 -8 -7 -37
15 -37 28 0 14 16 11 30 -6z m-12 -73 c3 -9 -2 -13 -14 -10 -9 1 -19 9 -22 16
-3 9 2 13 14 10 9 -1 19 -9 22 -16z m627 8 c3 -5 1 -10 -4 -10 -6 0 -11 5 -11
10 0 6 2 10 4 10 3 0 8 -4 11 -10z m285 -100 c0 -5 -2 -10 -4 -10 -3 0 -8 5
-11 10 -3 6 -1 10 4 10 6 0 11 -4 11 -10z m-13 -36 c-3 -3 -12 -4 -19 -1 -8 3
-5 6 6 6 11 1 17 -2 13 -5z"/>
<path d="M1260 1816 c0 -2 8 -10 18 -17 15 -13 16 -12 3 4 -13 16 -21 21 -21
13z"/>
<path d="M1296 1771 c-3 -4 6 -18 19 -29 16 -14 25 -17 25 -9 0 16 -38 49 -44
38z"/>
<path d="M65 1670 c-3 -5 -1 -10 4 -10 6 0 11 5 11 10 0 6 -2 10 -4 10 -3 0
-8 -4 -11 -10z"/>
<path d="M1010 1164 c0 -8 5 -12 10 -9 6 3 10 10 10 16 0 5 -4 9 -10 9 -5 0
-10 -7 -10 -16z"/>
<path d="M910 1102 c0 -4 20 -13 45 -20 69 -18 77 -14 15 8 -65 23 -60 22 -60
12z"/>
<path d="M1185 1060 c3 -5 8 -10 11 -10 2 0 4 5 4 10 0 6 -5 10 -11 10 -5 0
-7 -4 -4 -10z"/>
<path d="M1030 990 c20 -13 50 -13 50 0 0 6 -15 10 -32 10 -25 0 -29 -3 -18
-10z"/>
<path d="M921 884 c8 -9 34 -26 59 -36 53 -23 123 -19 170 9 32 18 42 41 13
27 -33 -15 -171 -14 -214 2 -38 13 -40 13 -28 -2z"/>
<path d="M1355 620 c-3 -6 1 -13 10 -16 19 -8 30 0 20 15 -8 14 -22 14 -30 1z"/>
<path d="M678 583 c7 -3 16 -2 19 1 4 3 -2 6 -13 5 -11 0 -14 -3 -6 -6z"/>
<path d="M138 1871 c-32 -18 -32 -35 0 -39 12 -2 19 -8 16 -14 -4 -5 5 -3 19
6 17 12 23 23 20 37 -4 15 -8 17 -13 8 -6 -9 -9 -8 -11 3 -4 12 -8 12 -31 -1z"/>
<path d="M0 1859 c0 -18 2 -19 15 -9 8 7 15 16 15 21 0 5 -7 9 -15 9 -9 0 -15
-9 -15 -21z"/>
<path d="M5 650 c-3 -6 1 -7 9 -4 18 7 21 14 7 14 -6 0 -13 -4 -16 -10z"/>
<path d="M6 584 c-10 -25 -1 -27 19 -4 15 17 16 20 3 20 -9 0 -19 -7 -22 -16z"/>
<path d="M1270 270 c0 -5 5 -10 10 -10 6 0 10 5 10 10 0 6 -4 10 -10 10 -5 0
-10 -4 -10 -10z"/>
<path d="M1156 241 c-3 -5 0 -11 7 -14 8 -3 14 1 14 9 0 16 -13 19 -21 5z"/>
<path d="M1225 230 c3 -5 12 -7 20 -3 21 7 19 13 -6 13 -11 0 -18 -4 -14 -10z"/>
<path d="M1448 230 c-6 -17 7 -60 19 -60 23 1 35 19 29 44 -3 14 -10 26 -15
26 -12 0 -10 -34 3 -43 7 -6 6 -7 -4 -5 -8 3 -17 15 -20 29 -4 17 -8 20 -12 9z"/>
<path d="M1177 216 c-12 -10 -15 -16 -7 -21 16 -10 40 2 40 20 0 18 -9 19 -33
1z"/>
<path d="M1320 221 c0 -6 5 -13 10 -16 6 -3 10 1 10 9 0 9 -4 16 -10 16 -5 0
-10 -4 -10 -9z"/>
<path d="M1155 163 c2 -10 4 -22 4 -28 1 -5 5 -4 10 4 10 15 4 41 -9 41 -5 0
-7 -8 -5 -17z"/>
<path d="M1125 160 c3 -5 8 -10 11 -10 2 0 4 5 4 10 0 6 -5 10 -11 10 -5 0 -7
-4 -4 -10z"/>
<path d="M1233 92 c-7 -4 -9 -13 -4 -21 6 -9 10 -7 14 8 3 12 4 21 4 21 -1 0
-7 -4 -14 -8z"/>
<path d="M1260 86 c0 -8 -2 -21 -5 -28 -4 -11 2 -14 25 -13 33 1 52 19 43 42
-7 17 -23 17 -23 -1 0 -8 -7 -16 -15 -20 -9 -3 -15 0 -15 10 0 8 5 12 10 9 6
-3 10 -1 10 4 0 6 -7 11 -15 11 -8 0 -15 -6 -15 -14z"/>
<path d="M1155 60 c-4 -6 -2 -17 5 -24 8 -11 8 -15 -2 -19 -8 -4 -7 -6 5 -6
19 -1 23 24 6 35 -8 4 -7 9 2 15 10 6 10 9 2 9 -6 0 -15 -5 -18 -10z"/>
<path d="M1114 48 c-5 -7 -3 -8 6 -3 10 6 12 1 8 -18 -3 -15 -1 -24 3 -21 12
7 11 54 0 54 -6 0 -13 -5 -17 -12z"/>
<path d="M1217 43 c-4 -3 -7 -11 -7 -17 0 -6 5 -5 12 2 6 6 9 14 7 17 -3 3 -9
2 -12 -2z"/>
<path d="M1255 15 l-30 -14 28 -1 c15 0 27 5 27 11 0 5 5 7 10 4 6 -3 10 -1
10 4 0 14 -7 13 -45 -4z"/>
</g>
</svg>
