<?xml version="1.0" standalone="no"?>
<!DOCTYPE svg PUBLIC "-//W3C//DTD SVG 20010904//EN"
 "http://www.w3.org/TR/2001/REC-SVG-20010904/DTD/svg10.dtd">
<svg version="1.0" xmlns="http://www.w3.org/2000/svg"
 width="700.000000pt" height="700.000000pt" viewBox="0 0 700.000000 700.000000"
 preserveAspectRatio="xMidYMid meet">
<metadata>
Created by potrace 1.14, written by Peter Selinger 2001-2017
</metadata>
<g transform="translate(0.000000,700.000000) scale(0.100000,-0.100000)"
fill="#000000" stroke="none">
<path d="M1186 6989 c-57 -14 -102 -45 -141 -96 -19 -25 -35 -49 -35 -54 0 -4
14 -10 30 -14 33 -7 39 -25 15 -45 -11 -9 -33 -11 -75 -6 -100 11 -94 -17 27
-146 78 -84 87 -111 40 -116 -33 -4 -58 13 -50 34 7 19 -22 51 -67 74 -45 23
-74 55 -67 75 7 16 -1 19 -19 7 -22 -14 -34 -52 -34 -104 l1 -53 29 35 29 35
1 -26 c0 -30 -15 -46 -74 -74 -35 -17 -41 -25 -44 -55 -4 -44 -16 -58 -64 -77
-44 -17 -47 -32 -16 -73 12 -16 19 -33 15 -36 -3 -4 -36 -1 -72 6 -36 7 -69 9
-73 5 -4 -4 -7 -38 -7 -77 0 -55 -4 -73 -17 -81 -44 -28 -118 43 -118 113 0
58 -14 69 -120 85 -52 8 -111 17 -131 21 -32 5 -38 3 -44 -15 -4 -12 -10 -21
-13 -19 -51 26 -63 30 -69 25 -20 -20 -28 -363 -16 -702 l6 -197 99 7 c58 4
98 3 98 -3 0 -10 -43 -30 -125 -59 -59 -21 -85 -62 -85 -131 0 -77 20 -107 99
-147 101 -50 94 -71 -17 -50 -48 9 -64 9 -72 0 -7 -8 -5 -48 6 -121 14 -97 14
-155 4 -524 -15 -486 -12 -632 11 -655 8 -8 35 -19 60 -24 l44 -8 -48 -8 c-77
-12 -80 -21 -85 -263 -5 -246 12 -714 28 -757 6 -19 21 -35 39 -41 18 -7 35
-27 49 -56 39 -79 26 -107 -53 -116 -25 -2 -45 -7 -45 -9 0 -3 11 -14 25 -25
40 -31 28 -71 -15 -48 -25 14 -26 -1 -1 -24 14 -13 28 -16 50 -11 44 9 71 -21
71 -80 0 -32 -4 -45 -14 -45 -7 0 -19 -7 -26 -15 -9 -11 -8 -22 7 -52 43 -89
144 -85 299 13 120 74 137 80 330 110 21 3 34 11 37 24 6 25 80 59 202 96 102
30 242 38 310 17 44 -14 140 -71 132 -79 -2 -3 -37 3 -76 12 -73 16 -93 14
-76 -10 69 -93 60 -96 -95 -30 -52 23 -81 28 -146 28 -56 1 -86 -3 -98 -13
-22 -19 -5 -31 46 -31 39 0 54 -13 50 -43 -3 -14 4 -17 37 -17 28 0 48 -7 61
-20 44 -44 17 -51 -82 -20 -90 28 -104 26 -146 -21 -50 -56 -82 -70 -171 -76
-89 -6 -179 10 -215 38 -25 20 -25 20 -46 -1 -27 -27 -50 -79 -43 -97 3 -8 36
-31 74 -53 37 -22 71 -45 75 -51 17 -28 -18 -17 -139 44 -135 69 -168 77 -220
54 -28 -12 -190 -148 -183 -154 2 -2 34 2 72 8 53 9 82 9 125 0 58 -12 160
-66 167 -89 2 -7 -13 -29 -34 -49 -38 -35 -39 -36 -106 -30 -37 3 -68 4 -68 1
0 -18 100 -45 200 -54 63 -6 116 -13 119 -15 2 -3 -1 -5 -7 -5 -40 0 -434 -51
-455 -59 -32 -12 -47 -39 -47 -83 0 -39 33 -98 55 -98 26 0 8 -17 -25 -23 -22
-5 -30 -12 -30 -27 0 -53 49 -87 158 -110 34 -7 62 -16 62 -20 0 -4 -35 -9
-78 -12 -98 -6 -142 -27 -142 -68 0 -49 45 -83 155 -116 l60 -19 -89 -5 c-114
-7 -126 -19 -126 -124 0 -89 15 -120 58 -124 41 -4 41 -14 -3 -35 -42 -20 -45
-37 -8 -37 l27 0 -29 -30 -28 -29 124 2 124 2 70 -42 c39 -23 101 -54 138 -68
229 -86 468 -275 571 -453 l49 -84 711 5 c458 3 739 9 790 16 43 7 125 27 182
46 60 21 123 35 151 35 l48 0 -45 -39 -44 -38 47 -7 c51 -8 157 1 157 13 0 4
-18 22 -40 40 -22 17 -40 36 -40 41 0 20 73 9 175 -24 206 -68 440 -86 502
-40 28 21 185 277 203 331 10 28 7 41 -21 105 -19 42 -33 90 -34 114 0 51 51
154 85 171 23 11 25 19 26 78 2 108 54 155 171 155 73 0 83 10 83 89 0 61 8
63 83 21 63 -35 98 -37 152 -10 72 37 101 24 159 -67 26 -40 56 -71 97 -98 98
-66 124 -153 73 -248 -21 -41 -23 -51 -12 -65 19 -25 31 -32 54 -32 24 0 51
29 127 133 26 36 67 82 90 101 52 42 142 86 179 86 32 0 91 -63 164 -174 27
-42 52 -76 56 -76 3 0 8 62 10 138 3 117 7 146 28 197 19 45 31 61 47 63 26 4
30 -10 87 -248 39 -160 62 -296 102 -590 14 -107 27 -197 29 -199 4 -4 868
-20 1124 -20 l153 -1 -4 118 c-5 123 -17 163 -52 180 -16 8 -17 11 -4 11 23 1
27 27 39 281 16 345 24 3656 9 4335 -13 646 -19 742 -46 762 -17 12 -17 13 5
13 16 0 26 10 37 35 28 67 10 155 -37 189 -25 17 -87 21 -134 8 -38 -11 -55
-5 -55 19 0 28 38 39 131 39 77 0 80 1 92 28 9 20 12 135 12 427 0 365 -2 404
-18 448 -12 30 -29 52 -46 61 -61 32 -322 41 -1206 41 -890 0 -1157 -9 -1232
-40 -28 -12 -38 -13 -44 -4 -13 21 -148 27 -864 40 -676 12 -1398 4 -1447 -16
-10 -4 -18 -16 -18 -26 0 -27 -25 -24 -53 6 -32 35 -121 48 -302 43 -150 -3
-190 -14 -144 -38 15 -9 53 -11 117 -8 78 4 91 3 80 -8 -20 -20 -240 -144
-255 -144 -11 0 -13 13 -7 61 6 56 5 61 -15 66 -14 3 -21 13 -21 28 0 13 -8
26 -17 30 -28 12 -273 15 -317 4z m32 -68 c5 -49 -4 -76 -30 -88 -27 -12 -74
1 -82 23 -8 20 18 69 46 89 36 25 62 16 66 -24z m1865 -1 c56 -17 106 -35 111
-40 15 -15 -55 -51 -94 -48 -32 3 -35 5 -32 32 3 28 3 29 -41 24 -50 -6 -77 5
-77 31 0 39 5 39 133 1z m407 -5 c14 -17 10 -47 -7 -52 -15 -5 -47 42 -38 57
9 14 31 12 45 -5z m-2022 -59 c2 -15 -2 -33 -8 -41 -15 -18 -64 -28 -91 -20
-19 6 -17 9 19 25 28 13 43 27 48 45 8 33 28 27 32 -9z m662 24 c0 -26 -118
-41 -150 -20 -13 9 -13 11 0 20 20 13 150 13 150 0z m1675 -15 c0 -16 -8 -21
-35 -23 -43 -3 -65 10 -57 33 5 12 17 15 49 13 35 -2 43 -7 43 -23z m2703 -69
c2 -10 -1 -23 -8 -30 -9 -8 -16 -5 -31 13 -26 32 -24 43 8 39 18 -2 29 -10 31
-22z m-3576 3 c-43 -13 -49 -31 -22 -69 12 -16 18 -30 13 -30 -16 0 -153 97
-146 103 3 4 47 7 97 6 75 -1 85 -2 58 -10z m1349 -29 c15 -51 28 -61 120 -94
85 -30 227 -118 306 -190 37 -33 62 -69 88 -124 39 -82 116 -204 198 -315 81
-111 37 -111 -135 -1 -53 34 -60 36 -87 25 -16 -7 -39 -23 -52 -37 -42 -44
-61 -34 -203 104 -237 231 -283 254 -531 268 -126 7 -160 16 -151 40 8 20 -20
29 -48 16 -13 -6 -53 -56 -90 -111 -79 -117 -121 -156 -265 -243 -124 -74
-206 -139 -225 -176 -7 -15 -19 -51 -26 -79 -13 -57 -61 -133 -84 -133 -8 0
-16 11 -18 25 -11 88 -56 -46 -67 -197 -4 -59 -10 -110 -13 -113 -5 -5 -19 88
-33 225 -4 30 -1 87 6 125 18 104 17 117 -6 121 -23 3 -44 29 -51 64 -3 14
-10 36 -17 50 -16 32 -57 34 -72 4 -22 -44 -38 -56 -68 -50 -27 6 -28 4 -22
-23 9 -40 -11 -51 -99 -58 -69 -5 -76 -4 -76 12 0 46 177 309 286 425 41 44
74 82 74 86 0 3 -25 3 -55 -1 -31 -3 -55 -3 -55 3 0 15 48 32 121 42 82 12
118 26 219 85 108 63 273 116 382 123 83 5 90 3 127 -22 50 -35 72 -31 84 14
16 63 50 81 67 35 13 -33 23 -32 80 10 55 40 104 60 176 69 58 8 132 -7 141
-30 9 -25 21 -15 28 26 9 52 31 52 46 0z m-3110 -29 c55 -54 61 -78 23 -87
-44 -11 -78 7 -91 50 -14 39 -8 86 10 86 5 0 32 -22 58 -49z m184 -21 c0 -35
-46 -41 -69 -9 -21 30 -11 41 32 37 32 -3 37 -6 37 -28z m1000 20 c4 -6 -13
-10 -45 -10 -32 0 -49 4 -45 10 3 6 24 10 45 10 21 0 42 -4 45 -10z m-521 -36
c9 -3 16 -14 16 -24 0 -31 -53 -40 -86 -15 -19 15 -19 15 0 30 21 16 44 19 70
9z m381 -144 c-3 -5 -24 -10 -45 -10 -21 0 -42 5 -45 10 -4 6 13 10 45 10 32
0 49 -4 45 -10z m-1008 -56 c20 -31 9 -57 -26 -62 -40 -6 -81 55 -54 81 17 17
63 6 80 -19z m176 -4 c59 -38 64 -65 10 -57 -39 6 -83 45 -83 73 0 21 20 17
73 -16z m4492 -20 c0 -29 -29 -50 -46 -33 -9 9 -8 18 5 38 20 31 41 28 41 -5z
m-4817 -43 c17 -13 15 -27 -5 -27 -17 0 -63 37 -63 52 0 8 45 -9 68 -25z
m5817 17 c-11 -8 -26 -12 -33 -9 -8 3 -18 5 -23 5 -5 0 -9 5 -9 10 0 6 19 10
43 10 39 -1 41 -2 22 -16z m-4460 -11 c47 -22 44 -33 -9 -33 -46 0 -62 11 -52
35 7 19 17 19 61 -2z m3269 -9 c9 -3 13 -10 10 -15 -6 -10 -45 -12 -69 -3 -13
5 -14 8 -3 15 15 10 40 11 62 3z m-3967 -49 c44 -19 75 -44 67 -56 -15 -24
-191 -1 -216 28 -31 38 77 58 149 28z m3790 -12 c14 -20 14 -23 -1 -29 -26
-10 -46 4 -46 31 0 32 25 31 47 -2z m-4530 -24 c37 -23 63 -65 63 -103 0 -39
-17 -39 -24 0 -5 24 -22 50 -53 80 -49 47 -43 58 14 23z m1677 -2 c23 -38 -78
-79 -112 -45 -19 19 -14 30 8 18 22 -12 40 -6 40 14 0 17 22 37 39 34 7 -2 19
-11 25 -21z m1563 -4 c74 -36 42 -72 -46 -52 -43 10 -151 64 -151 76 0 13 162
-6 197 -24z m-3349 -45 c4 -33 -21 -39 -38 -9 -16 30 -12 43 13 39 16 -2 23
-11 25 -30z m5880 0 c4 -33 -21 -39 -38 -9 -16 30 -12 43 13 39 16 -2 23 -11
25 -30z m-6544 -20 c8 -14 7 -21 -6 -34 -30 -30 -75 9 -48 42 16 18 39 15 54
-8z m136 -66 c0 -88 -38 -143 -75 -112 -27 22 -18 73 21 118 20 23 40 40 45
36 5 -3 9 -22 9 -42z m934 12 c9 -3 13 -10 10 -15 -6 -10 -45 -12 -69 -3 -13
5 -14 8 -3 15 15 10 40 11 62 3z m5684 -101 c4 -37 -3 -41 -30 -16 -26 24 -24
55 5 51 17 -2 23 -11 25 -35z m-1468 -30 c0 -17 -37 -63 -52 -63 -8 0 9 45 25
68 13 17 27 15 27 -5z m-4594 -17 c15 -12 17 -18 8 -33 -16 -25 -37 -27 -64
-5 -46 37 8 73 56 38z m-446 -39 c0 -46 -28 -137 -42 -137 -21 0 -78 63 -78
86 0 15 15 32 47 53 60 40 73 40 73 -2z m173 8 c44 -39 31 -55 -44 -55 -45 0
-58 17 -41 56 15 31 48 31 85 -1z m3172 -26 c52 -16 130 -37 173 -45 193 -37
335 -156 481 -402 72 -122 122 -188 249 -331 117 -131 138 -171 157 -303 17
-115 40 -204 55 -213 6 -3 10 -13 10 -22 0 -14 -11 -15 -77 -9 -99 8 -168 39
-168 76 0 34 -50 58 -162 76 -102 16 -430 19 -483 4 -20 -6 -49 -26 -66 -48
-28 -33 -37 -37 -75 -36 -54 1 -87 18 -164 84 -56 48 -165 107 -376 203 -81
37 -151 92 -174 138 -11 20 -14 63 -13 161 1 98 -3 150 -16 196 -9 34 -14 67
-10 73 3 6 24 7 50 3 55 -8 60 3 46 86 -13 72 -8 90 25 90 26 0 65 36 98 90
24 41 123 110 197 138 74 29 132 27 243 -9z m1493 -19 c26 -24 28 -38 7 -46
-21 -9 -65 23 -65 46 0 26 30 26 58 0z m-113 -50 c0 -20 -6 -26 -28 -28 -29
-4 -44 16 -33 44 4 10 15 14 33 12 22 -2 28 -8 28 -28z m-2793 -17 c19 -17 25
-53 9 -53 -27 0 -41 15 -41 41 0 33 6 36 32 12z m-2067 -64 c5 -21 18 -46 28
-57 17 -19 17 -20 -14 -26 -17 -3 -46 -6 -64 -6 -46 0 -96 -19 -127 -48 l-28
-26 0 25 c0 48 133 183 174 177 14 -2 24 -15 31 -39z m265 29 c0 -20 -32 -48
-57 -48 -27 0 -29 8 -7 38 16 23 64 31 64 10z m-143 -183 c55 -33 56 -49 2
-42 -42 6 -79 30 -79 54 0 20 29 16 77 -12z m266 14 c31 -16 97 -81 92 -90 -8
-13 -76 9 -101 32 -13 12 -24 33 -24 46 0 26 3 27 33 12z m1107 -74 c14 -17
10 -47 -7 -52 -15 -5 -47 42 -38 57 9 14 31 12 45 -5z m-1563 -26 c7 -6 13
-22 13 -34 0 -15 16 -37 43 -60 l42 -37 -53 6 c-29 3 -68 15 -87 26 -65 40
-67 129 -3 116 17 -3 37 -11 45 -17z m357 -21 c5 -9 7 -20 3 -24 -9 -10 -77
22 -77 36 0 17 62 7 74 -12z m4841 -18 c3 -6 -1 -13 -9 -16 -22 -8 -68 4 -61
16 8 13 62 13 70 0z m-3355 -179 c0 -12 -28 -18 -57 -13 -38 7 -26 22 17 22
22 0 40 -4 40 -9z m3538 -30 c2 -18 0 -37 -5 -42 -14 -14 -53 20 -53 45 0 29
9 38 35 34 15 -2 21 -12 23 -37z m-3958 -9 c0 -28 -75 -60 -107 -47 -14 6 -7
12 32 31 54 24 75 29 75 16z m-1152 -68 c-2 -9 -13 -23 -25 -31 -20 -14 -23
-14 -29 1 -10 26 4 46 31 46 19 0 26 -5 23 -16z m5307 -50 c30 -64 -4 -87 -49
-33 -30 36 -32 46 -9 71 20 22 34 13 58 -38z m-2836 -10 c36 -32 91 -122 91
-149 0 -26 -29 -49 -71 -54 -36 -5 -45 -10 -47 -29 -5 -31 -37 -45 -91 -39
-66 7 -85 34 -78 112 8 81 23 129 53 165 38 44 90 42 143 -6z m2756 -84 c18
-15 10 -30 -16 -30 -33 0 -91 28 -83 41 8 14 79 6 99 -11z m-4617 -102 c18
-18 14 -56 -7 -67 -25 -14 -31 -5 -31 41 0 39 15 49 38 26z m402 3 c0 -12 -28
-18 -57 -13 -38 7 -26 22 17 22 22 0 40 -4 40 -9z m4060 -6 c14 -16 5 -35 -16
-35 -21 0 -74 29 -74 40 0 16 76 12 90 -5z m-4215 -35 c-3 -5 -24 -10 -45 -10
-21 0 -42 5 -45 10 -4 6 13 10 45 10 32 0 49 -4 45 -10z m663 -18 c7 -44 -57
-85 -72 -46 -10 25 -7 42 10 59 23 23 58 15 62 -13z m751 -67 c40 -43 81 -59
95 -36 19 31 205 16 249 -19 29 -25 14 -41 -48 -48 -49 -5 -66 -22 -45 -47 9
-11 35 -15 100 -15 64 0 91 -4 100 -14 15 -19 118 -53 197 -65 68 -11 114 -2
166 30 39 23 60 24 78 3 10 -13 32 -15 117 -12 113 3 115 3 127 -55 8 -40 33
-46 61 -14 12 14 24 32 27 39 3 10 11 7 28 -9 53 -49 99 -57 319 -57 201 -1
206 0 274 27 37 15 82 27 98 27 61 0 103 -41 123 -122 19 -77 78 -48 144 72
17 30 31 48 31 39 0 -9 -18 -79 -39 -155 -72 -253 -139 -425 -199 -509 -20
-27 -51 -86 -69 -130 -57 -137 -215 -383 -332 -516 -28 -32 -51 -65 -51 -74 0
-9 29 -47 65 -85 79 -84 165 -215 278 -420 170 -309 179 -322 255 -396 l74
-72 14 -120 c10 -87 26 -160 60 -264 83 -258 164 -604 164 -697 0 -72 -17 -81
-167 -91 -172 -12 -201 -17 -215 -44 -15 -29 -28 -36 -65 -36 -28 0 -33 4 -33
23 1 28 72 161 85 159 6 -1 15 -17 21 -34 l11 -33 6 27 c9 36 -2 84 -24 104
-17 15 -19 26 -13 77 7 58 7 59 -15 48 -33 -18 -41 -5 -41 63 0 34 -9 96 -20
138 -11 41 -26 118 -35 171 -44 273 -85 439 -135 542 -21 44 -66 150 -98 235
-63 164 -136 332 -158 365 -18 25 -17 19 1 -52 43 -165 -21 -369 -159 -509
-92 -93 -113 -100 -285 -84 -284 25 -442 64 -611 151 -267 138 -533 393 -640
614 -95 195 -94 358 4 539 58 106 61 127 37 222 -23 93 -45 241 -66 454 -22
219 -34 249 -103 251 l-37 1 50 15 c79 24 78 20 74 168 l-4 130 35 5 c36 5 47
24 49 86 1 31 16 54 36 54 7 0 31 -20 54 -45z m-2443 13 c53 -24 16 -95 -59
-113 -40 -10 -35 17 11 54 45 37 36 47 -53 58 -49 5 -55 8 -35 14 30 9 103 2
136 -13z m1924 -7 c0 -26 -14 -41 -41 -41 -15 0 -10 32 8 52 23 26 33 22 33
-11z m114 -52 c14 -17 26 -42 26 -56 0 -24 -1 -25 -22 -11 -34 22 -62 64 -55
82 9 23 22 20 51 -15z m-1068 -85 c34 -16 42 -28 26 -38 -11 -7 -72 31 -72 44
0 14 6 13 46 -6z m4659 -23 c-31 -27 -125 -90 -125 -83 0 20 84 92 109 92 14
0 21 -4 16 -9z m-4505 -68 c0 -14 -34 -43 -52 -43 -19 0 -22 8 -12 34 6 15 64
24 64 9z m3120 -13 c26 -26 25 -40 -2 -40 -20 0 -108 45 -108 55 0 3 20 5 45
5 32 0 51 -6 65 -20z m-2565 -80 c0 -20 -6 -26 -28 -28 -18 -2 -29 2 -33 12
-11 28 4 48 33 44 22 -2 28 -8 28 -28z m-1625 -340 c47 -24 59 -40 30 -40 -23
0 -95 34 -105 50 -10 17 33 11 75 -10z m-233 -325 c48 -14 82 -39 70 -51 -9
-9 -126 18 -138 32 -11 13 -5 34 10 34 4 0 30 -7 58 -15z m323 -205 c0 -24
-29 -40 -69 -40 -42 0 -39 10 11 42 45 29 58 28 58 -2z m-66 -239 c24 -26 3
-32 -56 -14 -60 17 -62 33 -5 33 30 0 49 -6 61 -19z m1808 -321 c57 -85 295
-658 367 -883 34 -107 39 -158 16 -177 -20 -17 -10 -30 24 -30 39 0 92 -19
117 -42 28 -25 48 -98 41 -146 -4 -22 -17 -46 -32 -60 -24 -20 -24 -23 -8 -28
39 -12 49 -23 85 -90 97 -180 269 -851 285 -1105 5 -89 4 -98 -16 -118 -13
-13 -34 -21 -54 -21 -42 0 -153 -54 -254 -122 -43 -29 -98 -62 -122 -73 -42
-18 -44 -18 -57 -1 -20 28 -32 99 -54 328 -27 272 -72 592 -116 828 -26 137
-32 190 -25 207 7 15 30 28 83 43 93 28 117 41 147 79 20 27 21 32 7 37 -28
11 -64 -5 -115 -50 -27 -24 -66 -49 -86 -56 -33 -11 -40 -10 -64 7 -40 30 -68
89 -91 190 -12 52 -32 108 -46 128 -37 55 -59 102 -89 195 -53 162 -90 220
-267 417 -59 65 -130 147 -157 182 -65 84 -97 104 -185 111 l-71 6 155 76
c122 61 410 188 500 221 30 11 46 1 82 -53z m2658 21 c0 -13 -58 -48 -94 -57
-43 -10 -29 15 24 43 46 24 70 29 70 14z m-4720 -101 c0 -28 -11 -51 -21 -44
-10 6 -12 57 -3 67 11 10 24 -3 24 -23z m4780 -1 c74 -33 112 -81 77 -95 -30
-11 -122 50 -148 97 -13 26 12 25 71 -2z m-4485 -69 c23 -9 26 -13 15 -20 -40
-26 -144 -1 -125 30 9 14 61 9 110 -10z m-335 -60 c0 -26 -37 -100 -50 -100
-15 0 -12 57 5 90 18 34 45 40 45 10z m1270 -90 c0 -9 -62 -40 -79 -40 -26 0
5 41 39 52 18 6 40 -1 40 -12z m249 -115 c56 -27 101 -52 101 -55 0 -12 -176
-88 -242 -106 -35 -9 -117 -20 -183 -24 -135 -10 -241 -29 -365 -64 -47 -14
-106 -28 -130 -32 -40 -6 -44 -5 -32 8 20 24 131 74 205 92 37 10 133 21 215
26 238 16 352 50 352 104 0 26 -5 28 -102 50 -27 6 -38 33 -20 50 17 18 106
-3 201 -49z m-1121 -8 c18 -14 -3 -27 -45 -27 -59 0 -84 23 -41 39 24 9 67 3
86 -12z m5659 -863 c11 -30 -13 -39 -57 -19 -22 10 -40 22 -40 27 0 4 20 8 45
8 32 0 47 -5 52 -16z m-1839 -588 c2 -31 0 -56 -5 -56 -22 0 -33 28 -33 84 0
56 1 59 17 44 10 -10 18 -39 21 -72z m-151 -3 c6 -44 -9 -83 -33 -83 -30 0
-46 99 -23 142 11 20 11 20 31 1 11 -11 22 -38 25 -60z m367 50 c9 -21 -39
-123 -58 -123 -34 0 -31 95 4 130 21 21 45 18 54 -7z m-499 -135 c12 -31 13
-38 2 -38 -25 0 -77 79 -77 117 0 26 55 -32 75 -79z m653 19 c4 -45 -20 -80
-52 -75 -16 2 -22 12 -24 36 -4 44 22 84 51 80 18 -2 23 -11 25 -41z m-799
-53 c24 -31 29 -104 8 -104 -27 0 -83 89 -73 116 9 23 43 16 65 -12z m-161
-139 c37 -31 60 -81 44 -97 -27 -27 -122 49 -122 98 0 33 38 32 78 -1z m-51
-242 c25 -16 38 -47 27 -64 -19 -31 -124 21 -124 62 0 31 50 32 97 2z m2219 1
c12 -18 14 -28 6 -36 -23 -23 -61 14 -48 47 8 22 23 18 42 -11z m994 -339 c14
-17 10 -47 -7 -52 -15 -5 -47 42 -38 57 9 14 31 12 45 -5z m-46 -131 c9 -3 13
-10 10 -15 -6 -10 -45 -12 -69 -3 -13 5 -14 8 -3 15 15 10 40 11 62 3z"/>
<path d="M4410 6362 c0 -4 15 -22 33 -38 76 -70 91 -69 26 1 -39 43 -59 55
-59 37z"/>
<path d="M4540 6188 c1 -27 30 -65 84 -107 45 -36 66 -39 66 -11 0 34 -109
140 -145 140 -3 0 -5 -10 -5 -22z"/>
<path d="M234 5855 c-13 -20 -14 -29 -5 -38 17 -17 46 4 46 33 0 33 -21 36
-41 5z"/>
<path d="M3551 4116 c-15 -17 -11 -68 5 -73 20 -6 45 28 42 56 -3 30 -29 39
-47 17z"/>
<path d="M3186 3872 c-15 -25 73 -65 229 -102 44 -11 91 -20 105 -20 l25 1
-25 13 c-28 15 -260 101 -302 111 -14 4 -28 2 -32 -3z"/>
<path d="M4140 3732 c0 -5 9 -20 19 -33 15 -18 22 -21 31 -13 20 20 7 49 -23
52 -15 2 -27 -1 -27 -6z"/>
<path d="M3595 3490 c-8 -13 9 -27 60 -47 42 -16 88 -16 111 1 18 14 18 16 1
33 -22 22 -160 33 -172 13z"/>
<path d="M3210 3109 c14 -25 130 -101 206 -135 174 -77 431 -71 585 12 62 34
129 91 129 110 0 18 -3 18 -80 -7 -53 -18 -99 -22 -252 -26 -219 -6 -377 7
-486 42 -98 32 -117 32 -102 4z"/>
<path d="M4755 2184 c-24 -24 -15 -47 29 -68 62 -30 97 5 56 57 -24 31 -60 35
-85 11z"/>
<path d="M2360 2051 c0 -10 38 -18 63 -13 33 7 17 22 -23 22 -22 0 -40 -4 -40
-9z"/>
<path d="M16 6558 c-18 -25 -22 -93 -6 -103 15 -9 90 65 90 90 0 40 -59 49
-84 13z"/>
<path d="M473 6540 c-95 -60 -97 -109 -4 -126 51 -9 71 -22 71 -45 0 -19 0
-19 38 0 44 23 87 67 97 99 7 25 -11 92 -26 92 -5 0 -14 -9 -21 -20 -17 -27
-24 -25 -37 10 -14 41 -42 39 -118 -10z"/>
<path d="M28 2288 l-23 -23 23 -3 c24 -4 72 22 72 38 0 19 -50 10 -72 -12z"/>
<path d="M54 2085 c-26 -18 -47 -66 -42 -97 3 -21 8 -19 61 33 31 31 57 61 57
67 0 17 -52 15 -76 -3z"/>
<path d="M4454 966 c-11 -29 0 -51 26 -51 21 0 25 5 25 30 0 24 -5 31 -23 33
-13 2 -24 -3 -28 -12z"/>
<path d="M4050 851 c-13 -25 -4 -48 22 -57 29 -9 52 18 44 50 -8 32 -50 36
-66 7z"/>
<path d="M4292 828 c-8 -8 -9 -15 -1 -25 15 -18 53 -16 91 3 24 12 28 18 17
25 -20 13 -93 11 -107 -3z"/>
<path d="M5167 834 c-4 -4 -7 -29 -7 -55 0 -36 6 -55 26 -78 23 -28 24 -31 7
-31 -29 0 -61 39 -81 99 -20 60 -32 67 -44 29 -12 -35 5 -122 32 -166 25 -40
66 -43 107 -8 25 22 28 30 28 90 0 50 -5 71 -21 92 -22 30 -36 38 -47 28z"/>
<path d="M4140 768 c-60 -46 -70 -65 -46 -84 40 -29 120 -4 132 40 19 75 -20
95 -86 44z"/>
<path d="M4627 793 c-14 -13 -6 -40 16 -61 18 -17 26 -19 35 -10 13 13 15 37
6 62 -6 16 -45 22 -57 9z"/>
<path d="M4045 620 c-7 -11 3 -112 14 -143 7 -17 8 -17 25 2 23 25 30 89 14
121 -15 27 -42 38 -53 20z"/>
<path d="M3930 582 c0 -5 9 -20 19 -33 15 -18 22 -21 31 -13 20 20 7 49 -23
52 -15 2 -27 -1 -27 -6z"/>
<path d="M4320 322 c-32 -27 -34 -32 -25 -58 6 -16 17 -29 25 -29 16 0 43 68
38 98 -3 16 -7 15 -38 -11z"/>
<path d="M4428 333 c-14 -17 -29 -82 -32 -143 -1 -25 0 -25 81 -25 67 0 87 4
110 21 58 43 66 93 24 145 -25 31 -53 17 -62 -32 -14 -66 -94 -96 -94 -34 0
27 3 30 28 28 20 -1 27 3 27 16 0 40 -54 56 -82 24z"/>
<path d="M4057 222 c-23 -25 -21 -56 5 -102 l22 -38 -24 -21 -25 -20 31 -1
c35 0 64 26 64 58 0 12 -13 36 -29 55 l-30 33 27 27 27 27 -26 0 c-14 0 -33
-8 -42 -18z"/>
<path d="M3928 199 c-10 -5 -22 -19 -28 -29 -10 -18 -8 -19 21 -13 l32 6 -6
-66 c-6 -67 1 -88 22 -63 16 19 24 104 13 141 -9 33 -27 41 -54 24z"/>
<path d="M4250 141 c-12 -23 -13 -61 -2 -61 15 0 52 46 52 63 0 24 -37 22 -50
-2z"/>
<path d="M4410 60 c-128 -55 -133 -63 -36 -58 70 3 80 6 100 30 17 21 27 25
49 21 26 -5 28 -3 25 18 -5 36 -32 34 -138 -11z"/>
</g>
</svg>
